<svg width="28" height="37" viewBox="0 0 28 37" fill="none" xmlns="http://www.w3.org/2000/svg">
<path d="M27.933 22.2674V16.9832H21.6636V12.6853H0.765503V31.8495C0.765503 34.181 2.63999 36.0769 4.94512 36.0769H17.484C19.7891 36.0769 21.6636 34.181 21.6636 31.8495V29.629C25.1988 29.1107 27.933 25.9843 27.933 22.2674ZM25.8432 22.2674C25.8432 24.8191 24.0453 27.0242 21.6636 27.5152V19.0969H25.8432V22.2674ZM5.93081 1.57083L4.53287 0C1.60428 2.66791 3.17979 4.71454 4.12062 5.93654C5.03902 7.13064 5.38286 7.57755 4.2063 8.76756L5.68387 10.262C8.16551 7.752 6.66552 5.80239 5.76955 4.63823C4.80838 3.38932 4.44816 2.92184 5.93081 1.57083ZM11.1553 1.57083L9.75739 0C6.8288 2.66791 8.40431 4.71454 9.34514 5.93654C10.2635 7.13064 10.6074 7.57755 9.43082 8.76756L10.9084 10.262C13.39 7.752 11.89 5.80239 10.9941 4.63823C10.0329 3.38932 9.67268 2.92184 11.1553 1.57083ZM16.3799 1.57083L14.9819 0C12.0533 2.66791 13.6288 4.71454 14.5697 5.93654C15.4881 7.13064 15.8319 7.57755 14.6553 8.76756L16.1329 10.262C18.6146 7.752 17.1146 5.80239 16.2186 4.63823C15.2574 3.38932 14.8972 2.92184 16.3799 1.57083Z" fill="#64099B"/>
</svg>
